<?xml version="1.0" encoding="utf-8"?>
<!-- Generator: Adobe Illustrator 23.0.1, SVG Export Plug-In . SVG Version: 6.00 Build 0)  -->
<svg version="1.1" id="Layer_1" xmlns="http://www.w3.org/2000/svg" xmlns:xlink="http://www.w3.org/1999/xlink" x="0px" y="0px"
	 viewBox="0 0 467 250.2" style="enable-background:new 0 0 467 250.2;" xml:space="preserve">
<style type="text/css">
	.st0{fill:#3DDB85;}
	.st1{display:none;fill:none;}
</style>
<g>
	<g>
		<g>
			<path class="st0" d="M331.5,184.3c-9.8,0-17.7-8-17.7-17.7s7.9-17.7,17.7-17.7c9.8,0,17.7,7.9,17.7,17.7S341.2,184.3,331.5,184.3
				 M135.6,184.3c-9.8,0-17.7-8-17.7-17.7s7.9-17.7,17.7-17.7c9.8,0,17.7,7.9,17.7,17.7S145.4,184.3,135.6,184.3 M337.8,77.6
				l35.4-61.3c2-3.5,0.8-8-2.7-10.1c-3.5-2-8-0.8-10.1,2.7L324.6,71c-27.4-12.5-58.2-19.5-91.1-19.5c-32.9,0-63.7,7-91.1,19.5
				L106.6,8.9c-2-3.5-6.5-4.7-10.1-2.7c-3.5,2-4.7,6.5-2.7,10.1l35.4,61.3C68.4,110.7,26.8,172.2,20.7,245h425.6
				C440.2,172.2,398.6,110.7,337.8,77.6"/>
		</g>
		<rect class="st1" width="467" height="250.2"/>
	</g>
</g>
</svg>
