<?xml version="1.0" encoding="utf-8"?>
<!-- Generator: Adobe Illustrator 23.0.1, SVG Export Plug-In . SVG Version: 6.00 Build 0)  -->
<svg version="1.1" id="Layer_1" xmlns="http://www.w3.org/2000/svg" xmlns:xlink="http://www.w3.org/1999/xlink" x="0px" y="0px"
	 viewBox="0 0 444 453" style="enable-background:new 0 0 444 453;" xml:space="preserve">
<style type="text/css">
	.st0{fill:#FF2D20;}
</style>
<path class="st0" d="M437.6,104.8c0-0.2-0.2-0.4-0.2-0.6c-0.1-0.4-0.3-0.7-0.4-1.1c-0.1-0.2-0.3-0.4-0.5-0.6
	c-0.2-0.3-0.4-0.6-0.6-0.8c-0.2-0.2-0.5-0.4-0.7-0.5c-0.3-0.2-0.5-0.4-0.8-0.6l0,0l0,0l-83.6-48.1c-2.2-1.2-4.8-1.2-6.9,0
	l-83.6,48.1l0,0l0,0c-0.3,0.2-0.5,0.4-0.8,0.6c-0.2,0.2-0.5,0.3-0.7,0.5c-0.2,0.2-0.4,0.5-0.6,0.8c-0.2,0.2-0.4,0.4-0.5,0.6
	c-0.2,0.3-0.3,0.7-0.4,1.1c-0.1,0.2-0.2,0.4-0.2,0.6c-0.2,0.6-0.2,1.2-0.2,1.8V198l-69.7,40.1V59.3c0-0.6-0.1-1.2-0.2-1.8
	c0-0.2-0.2-0.4-0.2-0.6c-0.1-0.4-0.3-0.7-0.4-1.1c-0.1-0.2-0.3-0.4-0.5-0.6c-0.2-0.3-0.4-0.6-0.6-0.8c-0.2-0.2-0.5-0.4-0.7-0.5
	c-0.3-0.2-0.5-0.4-0.8-0.6l0,0l0,0L100.1,5.1c-2.2-1.2-4.8-1.2-6.9,0L9.6,53.3l0,0l0,0c-0.3,0.2-0.5,0.4-0.8,0.6
	c-0.2,0.2-0.5,0.3-0.7,0.5c-0.2,0.2-0.4,0.5-0.6,0.8c-0.2,0.2-0.4,0.4-0.5,0.6c-0.2,0.3-0.3,0.7-0.4,1.1c-0.1,0.2-0.2,0.4-0.2,0.6
	c-0.2,0.6-0.2,1.2-0.2,1.8v286.3c0,2.5,1.3,4.8,3.5,6l167.2,96.2c0.4,0.2,0.8,0.3,1.1,0.5c0.2,0.1,0.4,0.2,0.5,0.2
	c0.6,0.2,1.2,0.2,1.8,0.2s1.2-0.1,1.8-0.2c0.2,0,0.3-0.1,0.5-0.2c0.4-0.1,0.8-0.3,1.2-0.5l167.2-96.2c2.2-1.2,3.5-3.5,3.5-6v-91.4
	l80.1-46.1c2.2-1.2,3.5-3.5,3.5-6v-95.4C437.8,106,437.7,105.4,437.6,104.8z M180.1,337.6l-69.5-39.3l73-42l0,0l80.1-46.1l69.6,40.1
	l-51.1,29.1L180.1,337.6z M340.3,158.8v79.4l-29.3-16.8L270.6,198v-79.4l29.3,16.8L340.3,158.8z M347.3,66.5l69.6,40.1l-69.6,40.1
	l-69.6-40.1L347.3,66.5z M132.7,269.4l-29.3,16.8V111.4l40.4-23.3l29.3-16.8v174.8L132.7,269.4z M96.5,19.2l69.6,40.1L96.5,99.4
	L26.9,59.3L96.5,19.2z M19.9,71.3l29.3,16.8l40.4,23.3v186.8v0v0c0,0.3,0.1,0.5,0.1,0.8c0,0.3,0,0.7,0.1,1v0
	c0.1,0.3,0.2,0.5,0.3,0.8c0.1,0.3,0.2,0.6,0.4,0.9c0,0,0,0,0,0c0.1,0.2,0.4,0.4,0.5,0.7c0.2,0.3,0.4,0.5,0.6,0.7l0,0
	c0.2,0.2,0.4,0.3,0.7,0.5c0.3,0.2,0.5,0.4,0.7,0.6c0,0,0,0,0,0c0,0,0,0,0,0l80.1,45.3v80.1L19.9,341.5V71.3z M340.3,341.5
	l-153.2,88.2v-80.2l113.5-64.8l39.8-22.7L340.3,341.5L340.3,341.5z M423.9,198l-69.7,40.1v-79.4l40.4-23.3l29.3-16.8L423.9,198
	L423.9,198z"/>
</svg>
